<!DOCTYPE svg PUBLIC "-//W3C//DTD SVG 20010904//EN" "http://www.w3.org/TR/2001/REC-SVG-20010904/DTD/svg10.dtd">
<svg version="1.0" xmlns="http://www.w3.org/2000/svg" width="1024px" height="1024px" viewBox="0 0 10240 10240" preserveAspectRatio="xMidYMid meet">
<g id="layer101" fill="#060102" stroke="none">
 <path d="M6875 9810 c-40 -16 -73 -66 -100 -150 -214 -659 -633 -1399 -1129 -1990 -199 -237 -635 -670 -676 -670 -39 0 -389 332 -584 554 -628 717 -1145 1593 -1231 2081 -9 55 -23 110 -31 122 -7 11 -34 29 -59 39 -44 16 -118 17 -1298 11 -689 -4 -1331 -10 -1427 -14 -164 -6 -176 -8 -197 -29 -13 -13 -23 -34 -23 -46 0 -25 121 -248 388 -718 87 -151 165 -296 174 -322 17 -49 45 -104 63 -124 35 -39 74 -95 111 -158 l42 -71 -54 -12 c-86 -20 -173 -70 -240 -138 -54 -55 -64 -71 -94 -161 -29 -87 -33 -112 -34 -204 0 -87 4 -115 23 -162 26 -68 89 -135 164 -175 l51 -28 3 -55 c10 -199 112 -321 271 -321 56 -1 61 -2 66 -25 4 -14 1 -64 -5 -112 -27 -191 -11 -746 27 -965 38 -223 127 -362 288 -452 94 -52 314 -131 487 -174 280 -71 779 -163 1021 -188 l57 -6 161 -218 161 -219 -547 -627 c-301 -346 -649 -745 -773 -888 -827 -948 -1182 -1357 -1201 -1383 -15 -20 -19 -35 -14 -44 5 -8 232 -221 504 -473 272 -253 522 -485 555 -516 287 -271 691 -639 700 -636 14 5 143 160 1414 1701 250 303 490 594 533 646 43 52 142 174 220 270 228 283 299 362 314 350 6 -6 38 -43 71 -82 115 -140 278 -335 363 -433 47 -55 122 -145 166 -200 44 -55 132 -163 195 -240 154 -187 1197 -1474 1498 -1847 25 -32 53 -58 61 -58 17 0 77 48 1111 892 96 78 279 228 406 331 127 103 234 195 237 203 3 9 3 21 -1 27 -9 15 -938 1273 -2062 2790 -168 228 -270 374 -267 383 3 8 77 117 164 242 87 125 181 261 209 302 64 94 70 100 228 205 236 158 460 255 775 336 126 32 166 39 214 34 115 -10 233 -84 387 -241 53 -55 106 -118 118 -141 12 -24 46 -84 77 -135 31 -51 58 -96 61 -100 2 -4 -21 -20 -51 -35 -170 -87 -300 -242 -362 -430 -26 -80 -29 -101 -29 -223 1 -101 5 -150 19 -195 30 -100 97 -227 143 -271 l42 -42 -29 -83 c-58 -168 -91 -388 -91 -604 0 -257 49 -410 171 -535 228 -234 499 -33 559 417 10 71 51 536 51 574 0 15 6 16 43 7 62 -14 203 -4 264 20 29 11 70 34 92 51 43 34 91 119 91 162 0 24 5 27 59 38 113 22 201 107 239 230 26 85 23 282 -6 384 -46 160 -139 288 -228 315 -35 10 -44 18 -58 56 -32 83 -127 158 -267 210 l-46 18 -21 85 c-31 127 -127 305 -270 503 -148 204 -509 496 -676 545 -56 17 -203 10 -486 -21 -176 -19 -250 -25 -250 -20 0 3 93 146 206 318 776 1176 1250 1956 1485 2443 87 180 146 334 155 399 6 38 3 48 -18 69 -31 31 -66 35 -413 47 -330 12 -2382 12 -2410 0z m-5122 -3064 c18 -7 41 -23 51 -35 11 -12 36 -24 57 -27 37 -6 42 -13 223 -293 102 -157 239 -367 305 -466 66 -98 119 -180 117 -182 -13 -14 -519 155 -651 217 -193 90 -206 116 -305 587 l-38 182 57 6 c48 4 140 19 149 24 1 0 17 -5 35 -13z"/>
 </g>
<g id="layer102" fill="#ff3e4b" stroke="none">
 <path d="M7270 9650 c-173 -3 -316 -7 -317 -8 -1 -1 -11 -32 -23 -69 -204 -622 -580 -1319 -1012 -1876 -207 -267 -500 -581 -744 -798 -160 -142 -201 -155 -294 -92 -227 151 -577 510 -886 908 -505 651 -897 1362 -999 1810 l-22 100 -99 6 c-147 10 -2544 10 -2544 1 0 -15 363 -673 659 -1191 59 -105 85 -141 119 -165 48 -34 82 -95 82 -149 0 -50 33 -103 70 -110 68 -14 151 -133 150 -215 -1 -25 -2 -25 -22 13 -65 124 -141 154 -249 100 -84 -43 -125 -88 -150 -163 -12 -37 -46 -120 -76 -186 -115 -251 -104 -384 39 -455 80 -41 92 -40 84 2 -58 273 35 536 219 618 167 76 339 -46 322 -228 l-5 -58 136 -225 c515 -856 1098 -1740 1529 -2321 67 -92 123 -176 123 -187 0 -11 -12 -35 -27 -54 -16 -18 -592 -669 -1281 -1446 -689 -778 -1255 -1419 -1257 -1425 -2 -7 307 -304 686 -662 943 -890 982 -926 991 -923 7 3 106 119 1037 1223 629 745 828 980 879 1032 12 13 22 26 22 29 0 3 10 15 23 28 12 13 31 34 42 47 11 13 56 67 100 119 45 52 110 131 145 175 134 171 222 266 236 255 6 -6 38 -43 71 -82 213 -259 339 -406 469 -548 69 -75 123 -147 116 -156 -4 -4 -2 -5 3 -2 6 3 49 -40 96 -96 154 -181 1256 -1510 1474 -1778 66 -81 124 -147 128 -147 7 -1 321 258 1420 1168 141 118 257 219 257 225 0 6 -152 211 -337 456 -184 245 -547 726 -806 1070 -259 344 -505 670 -547 725 -370 486 -680 905 -680 921 0 10 95 159 211 329 1048 1539 1892 2861 2359 3696 177 316 375 738 355 757 -8 9 -1833 10 -2275 2z m-827 -3302 c41 -40 92 -100 113 -132 37 -56 39 -64 42 -145 2 -57 0 -81 -7 -72 -8 12 -18 9 -58 -17 -60 -38 -225 -116 -353 -167 -420 -165 -953 -268 -1300 -251 -380 19 -775 107 -1135 253 -155 62 -410 191 -446 224 l-30 28 -9 -22 c-6 -15 -9 -17 -9 -6 -2 32 58 212 82 247 39 58 103 122 121 122 9 0 16 -2 16 -4 0 -2 3 -11 6 -19 3 -10 -15 -38 -50 -76 -60 -66 -70 -88 -71 -170 l0 -53 99 -44 c280 -125 594 -213 926 -261 179 -26 911 -26 1105 0 277 37 505 88 729 162 140 47 288 110 303 130 26 36 -28 140 -132 253 -55 60 -66 92 -31 92 8 0 48 -33 89 -72z m-2023 -1057 c174 -59 338 -186 474 -366 46 -61 96 -147 96 -164 0 -3 -23 30 -51 74 -122 191 -355 367 -559 422 -98 27 -248 24 -325 -7 -80 -31 -170 -120 -214 -213 -59 -124 -84 -242 -85 -407 -1 -208 42 -395 140 -607 20 -43 51 -115 69 -160 76 -190 217 -343 378 -411 82 -34 220 -38 282 -7 89 44 175 164 225 315 11 36 34 132 50 213 32 156 46 189 91 213 35 18 63 18 98 -1 37 -19 48 -48 66 -183 19 -136 44 -221 96 -325 73 -146 129 -210 214 -243 41 -15 55 -16 102 -6 31 6 74 23 97 36 64 37 195 146 251 208 105 116 207 330 269 569 56 213 69 312 61 470 -14 293 -72 416 -235 499 -101 51 -314 63 -461 25 -187 -49 -339 -179 -434 -375 -20 -41 -34 -62 -30 -45 8 35 65 151 97 199 91 132 230 230 388 271 36 9 115 19 175 22 188 9 332 -35 430 -134 87 -86 125 -184 151 -379 32 -245 0 -503 -98 -804 -75 -231 -169 -384 -319 -520 -172 -157 -266 -205 -399 -205 -63 1 -86 6 -140 31 -115 55 -189 135 -286 311 l-52 94 -50 -103 c-72 -147 -143 -227 -254 -289 -40 -22 -47 -29 -30 -29 55 0 92 -38 106 -110 34 -166 -2 -225 -152 -249 -176 -28 -352 57 -512 248 -66 79 -125 169 -116 178 3 3 47 -10 98 -30 51 -20 120 -44 153 -52 78 -21 230 -30 275 -17 34 10 33 10 -25 11 -245 5 -473 157 -613 411 -35 62 -115 267 -173 442 -112 337 -103 677 24 933 67 136 156 221 276 263 57 20 81 22 176 19 91 -3 126 -9 205 -36z m306 -547 c47 -22 131 -129 149 -188 9 -31 15 -92 15 -160 0 -101 -2 -116 -27 -165 -42 -81 -106 -148 -156 -162 -65 -17 -166 -8 -205 19 -35 25 -41 42 -16 42 28 0 84 65 84 97 0 69 -72 130 -140 119 l-38 -6 -7 83 c-8 106 -1 145 39 200 81 114 209 165 302 121z m790 -35 c55 -26 76 -61 108 -182 33 -124 33 -192 1 -292 -30 -94 -60 -136 -119 -164 -90 -42 -189 -21 -246 52 l-21 27 23 0 c52 0 102 66 91 122 -11 58 -82 99 -135 79 -14 -5 -29 -7 -32 -4 -3 4 -6 45 -6 92 0 98 16 141 74 207 70 81 174 106 262 63z m424 -1357 c0 -5 -9 -35 -20 -66 -63 -183 -200 -314 -380 -362 -82 -21 -263 -23 -305 -3 -15 8 -37 26 -49 42 -19 26 -19 32 -8 108 6 45 20 98 29 118 25 50 54 58 155 40 180 -30 326 -4 478 85 75 44 100 53 100 38z"/>
 <path d="M685 8669 c10 -34 47 -100 68 -123 9 -11 17 -23 17 -27 0 -4 7 -10 16 -13 15 -6 15 -4 2 16 -8 13 -32 53 -52 90 -40 72 -63 98 -51 57z"/>
 <path d="M950 8211 c-42 -13 -94 -42 -124 -70 -51 -47 -168 -213 -205 -290 -45 -95 -50 -189 -13 -259 24 -45 89 -122 103 -122 4 0 11 21 14 48 25 179 89 328 177 409 32 30 140 78 211 93 57 13 57 13 57 49 -1 57 -32 115 -73 134 -36 18 -103 21 -147 8z"/>
 <path d="M1332 7624 c-82 -42 -113 -126 -120 -326 -6 -193 0 -215 95 -345 63 -86 82 -104 112 -112 63 -17 230 -34 267 -28 42 7 95 -16 134 -58 14 -15 34 -32 45 -37 18 -10 18 -10 4 13 -8 13 -83 132 -165 264 l-149 240 -5 -55 -5 -55 -13 55 c-8 30 -17 125 -21 210 -4 85 -12 164 -18 175 -35 63 -103 88 -161 59z"/>
 <path d="M1067 6962 c30 -489 119 -966 207 -1116 31 -54 107 -123 154 -143 20 -8 103 -48 183 -88 173 -87 259 -124 469 -198 241 -86 816 -255 827 -243 2 2 -81 124 -185 272 l-188 269 -89 2 c-233 7 -632 58 -731 93 -93 32 -157 110 -197 235 -21 66 -22 88 -22 383 l0 312 -63 0 c-34 0 -78 6 -96 14 -38 16 -211 181 -249 238 l-25 37 5 -67z"/>
 <path d="M7849 6512 c-8 -9 -112 -161 -231 -337 -118 -176 -256 -378 -305 -450 -50 -71 -89 -131 -88 -133 2 -2 41 26 86 61 245 189 478 307 793 402 148 44 164 47 245 43 146 -8 280 -79 471 -253 74 -67 113 -114 189 -227 53 -79 120 -174 149 -211 38 -51 52 -77 52 -101 0 -51 -32 -84 -88 -92 -79 -11 -153 -58 -250 -158 -193 -199 -231 -414 -119 -666 39 -89 165 -180 272 -195 90 -14 207 43 333 163 75 73 106 137 123 254 10 71 10 95 -4 162 -29 139 -84 199 -196 213 -44 5 -60 2 -115 -26 -60 -30 -89 -55 -144 -126 l-23 -30 17 35 c42 87 115 151 201 176 65 19 147 6 207 -33 31 -20 40 -22 47 -11 5 7 9 16 9 20 0 4 14 24 32 44 35 40 89 77 128 88 19 5 15 1 -13 -17 -81 -52 -127 -117 -127 -179 0 -34 33 -133 52 -156 6 -6 56 -34 112 -61 170 -82 216 -153 216 -334 l0 -89 33 7 c115 25 177 124 177 285 0 189 -115 430 -206 430 -50 0 -97 35 -136 102 -44 75 -75 95 -193 128 -101 28 -124 40 -163 84 -29 33 -31 41 -31 108 1 48 -7 96 -20 140 -28 89 -143 314 -213 419 -113 167 -291 345 -460 459 -109 73 -122 75 -513 67 -179 -4 -284 -2 -275 3 13 8 13 10 0 9 -8 0 -22 -8 -31 -17z"/>
 <path d="M1030 6437 c0 -20 4 -38 9 -42 6 -3 7 10 4 32 -8 50 -13 55 -13 10z"/>
 <path d="M7843 5890 c-34 -14 -28 -21 7 -9 17 6 30 13 30 15 0 6 -12 4 -37 -6z"/>
 <path d="M9555 4670 c9 -28 -13 -175 -35 -232 -10 -27 -31 -65 -45 -84 -24 -31 -26 -39 -16 -60 17 -37 14 -59 -15 -114 -14 -27 -23 -53 -20 -58 9 -15 90 -32 153 -32 72 0 150 35 176 79 19 33 37 158 37 261 -1 113 -42 169 -172 236 -58 29 -71 30 -63 4z"/>
 <path d="M8720 4156 c-14 -39 -48 -297 -55 -432 -8 -136 7 -308 35 -420 48 -187 183 -339 285 -320 41 8 98 68 130 138 43 93 54 184 61 485 5 251 10 309 41 481 l6 33 -49 -19 c-115 -45 -210 -37 -344 30 -47 24 -88 44 -92 46 -5 2 -12 -8 -18 -22z"/>
 </g>
<g id="layer103" fill="#fdfdfd" stroke="none">
 <path d="M4100 5265 c-158 -45 -257 -167 -317 -393 -33 -125 -38 -337 -10 -476 22 -109 74 -268 123 -373 20 -43 51 -115 69 -160 76 -190 217 -343 378 -411 82 -34 220 -38 282 -7 89 44 175 164 225 315 11 36 34 132 50 213 32 156 46 189 91 213 35 18 63 18 98 -1 37 -19 48 -48 66 -183 19 -136 44 -221 96 -325 73 -146 129 -210 214 -243 41 -15 55 -16 102 -6 31 6 74 23 97 36 64 37 195 146 251 208 105 116 207 330 269 569 56 213 69 312 61 470 -14 293 -72 416 -235 499 -66 33 -194 53 -302 47 -222 -14 -383 -94 -502 -250 -81 -108 -126 -207 -161 -362 l-7 -30 -18 40 c-10 22 -19 49 -19 60 -2 41 -104 190 -190 275 -139 138 -281 227 -426 265 -88 24 -218 28 -285 10z m626 -521 c47 -22 131 -129 149 -188 9 -31 15 -92 15 -160 0 -101 -2 -116 -27 -165 -42 -81 -106 -148 -156 -162 -65 -17 -166 -8 -205 19 -35 25 -41 42 -16 42 28 0 84 65 84 97 0 69 -72 130 -140 119 l-38 -6 -7 83 c-8 106 -1 145 39 200 81 114 209 165 302 121z m790 -35 c55 -26 76 -61 108 -182 33 -124 33 -192 1 -292 -30 -94 -60 -136 -119 -164 -90 -42 -189 -21 -246 52 l-21 27 23 0 c52 0 102 66 91 122 -11 58 -82 99 -135 79 -14 -5 -29 -7 -32 -4 -3 4 -6 45 -6 92 0 98 16 141 74 207 70 81 174 106 262 63z"/>
 </g>

</svg>