<!DOCTYPE svg PUBLIC "-//W3C//DTD SVG 20010904//EN" "http://www.w3.org/TR/2001/REC-SVG-20010904/DTD/svg10.dtd">
<svg version="1.0" xmlns="http://www.w3.org/2000/svg" width="126px" height="126px" viewBox="0 0 1260 1260" preserveAspectRatio="xMidYMid meet">
<g id="layer101" fill="#19190a" stroke="none">
<path d="M458 1184 c-118 -105 -305 -223 -329 -208 -7 4 -9 3 -6 -3 7 -10 -53 -43 -80 -43 -22 0 -11 -47 31 -135 35 -74 113 -185 129 -185 17 0 166 152 204 208 20 29 40 49 44 45 3 -5 16 -39 28 -77 12 -38 44 -112 71 -166 l48 -97 -31 -11 c-40 -15 -74 -64 -83 -119 -4 -28 -10 -40 -19 -36 -50 19 -124 -134 -93 -190 7 -12 12 -24 11 -27 -1 -3 16 -4 37 -2 35 4 38 2 33 -16 -2 -11 1 -31 8 -43 7 -13 12 -27 12 -30 -1 -4 12 -3 30 0 30 6 33 10 40 61 8 53 10 126 4 238 -2 48 1 56 26 78 45 39 67 31 114 -39 39 -57 76 -102 137 -167 13 -14 49 -45 80 -69 31 -24 56 -47 56 -52 0 -12 -31 -11 -50 1 -11 8 -7 9 14 4 19 -4 27 -3 23 3 -4 6 -17 9 -29 8 -13 -1 -31 -3 -41 -4 -14 -1 -13 -6 10 -32 16 -17 27 -34 26 -38 -1 -4 15 -7 35 -6 33 0 37 3 37 27 -1 19 3 24 11 17 7 -6 27 -6 52 0 23 5 43 7 45 5 2 -2 3 6 2 19 -3 30 5 42 17 26 8 -11 9 -10 4 3 -3 10 5 29 18 45 23 27 96 153 96 165 0 4 -37 28 -82 54 -54 31 -116 80 -176 139 l-93 91 26 45 c15 28 26 65 27 94 3 45 1 50 -30 71 -18 12 -64 31 -102 41 -65 16 -70 19 -70 45 0 25 3 26 33 22 28 -5 34 -2 45 24 8 19 9 38 4 53 -5 13 -7 29 -5 35 7 21 -95 -1 -124 -27 -16 -13 -29 -27 -31 -31 -2 -5 -7 -8 -12 -8 -9 0 -100 201 -100 223 0 33 -21 26 -82 -29z m355 -376 c39 -17 47 -25 47 -47 -1 -14 -6 -36 -13 -49 l-13 -23 -20 23 c-11 13 -37 47 -58 76 -42 60 -40 61 57 20z"/>
</g>
<g id="layer102" fill="#475219" stroke="none">
<path d="M458 1184 c-118 -105 -305 -223 -329 -208 -7 4 -9 3 -6 -3 7 -10 -53 -43 -80 -43 -22 0 -11 -47 31 -135 35 -74 113 -185 129 -185 17 0 166 152 204 208 20 29 40 49 44 45 3 -5 16 -39 28 -77 12 -38 44 -112 71 -166 l48 -97 -31 -11 c-40 -15 -74 -64 -83 -119 -4 -28 -10 -40 -19 -36 -50 19 -124 -134 -93 -190 7 -12 12 -24 11 -27 -1 -3 16 -4 37 -2 35 4 38 2 33 -16 -2 -11 1 -31 8 -43 7 -13 12 -27 12 -30 -1 -4 12 -3 30 0 30 6 33 10 40 61 8 53 10 126 4 238 -2 48 1 56 26 78 35 30 68 31 86 2 36 -60 108 -148 121 -148 8 0 28 -21 44 -46 17 -28 34 -43 42 -40 8 3 13 1 11 -4 -3 -11 83 -91 117 -109 29 -16 50 -6 43 20 -3 10 1 23 9 30 11 9 14 8 14 -5 0 -11 -5 -14 -12 -10 -7 4 -8 3 -4 -4 17 -27 27 -10 20 33 -4 30 -3 45 5 45 6 0 11 -8 11 -18 0 -10 10 -26 22 -36 17 -15 20 -15 15 -2 -4 9 4 27 17 43 23 27 96 153 96 165 0 4 -37 28 -82 54 -54 31 -116 80 -176 139 l-93 91 26 45 c15 28 26 65 27 94 3 45 1 50 -30 71 -18 12 -64 31 -102 41 -65 16 -70 19 -70 45 0 25 3 26 33 22 28 -5 34 -2 45 24 8 19 9 38 4 53 -5 13 -7 29 -5 35 7 21 -95 -1 -124 -27 -16 -13 -29 -27 -31 -31 -2 -5 -7 -8 -12 -8 -9 0 -100 201 -100 223 0 33 -21 26 -82 -29z m355 -376 c39 -17 47 -25 47 -47 -1 -14 -6 -36 -13 -49 l-13 -23 -20 23 c-11 13 -37 47 -58 76 -42 60 -40 61 57 20z m22 -250 l15 -27 -37 6 c-57 9 -76 48 -24 48 22 0 34 -7 46 -27z m130 -228 c3 -5 4 -14 0 -20 -8 -13 -35 -1 -35 16 0 16 26 19 35 4z m-82 -30 c3 -13 0 -20 -8 -20 -17 0 -28 17 -20 30 10 16 22 12 28 -10z"/>
<path d="M945 70 c-19 -7 -19 -8 -2 -15 19 -8 31 -2 26 13 -2 5 -13 6 -24 2z"/>
</g>
<g id="layer103" fill="#4e8720" stroke="none">
<path d="M526 1225 c6 -16 4 -18 -6 -8 -10 9 -27 0 -78 -45 -36 -31 -79 -70 -96 -87 -16 -16 -26 -24 -22 -17 5 8 -8 3 -27 -9 -19 -13 -33 -28 -30 -33 4 -5 1 -6 -5 -2 -13 8 -75 -28 -65 -38 4 -4 -1 -4 -11 0 -13 5 -17 4 -12 -4 5 -8 1 -10 -10 -5 -12 5 -15 3 -9 -6 6 -10 3 -11 -15 -1 -15 8 -20 8 -16 1 4 -6 2 -11 -4 -11 -6 0 -8 -5 -4 -12 4 -6 3 -8 -3 -5 -6 4 -28 0 -48 -9 -33 -13 -36 -18 -30 -42 11 -46 47 -122 57 -122 5 0 6 -4 3 -10 -3 -5 7 -22 22 -37 15 -14 21 -23 13 -19 -8 4 -4 -2 10 -14 14 -12 18 -19 10 -15 -8 4 -3 -5 13 -19 15 -14 27 -29 27 -33 0 -5 8 -8 18 -8 9 0 16 5 15 11 -1 6 10 22 25 35 l27 24 -20 -25 c-10 -14 13 6 53 45 40 38 72 76 72 85 0 9 14 28 31 43 19 17 28 31 23 39 -6 9 -3 9 9 -1 9 -7 17 -20 17 -27 0 -8 4 -14 9 -14 5 0 9 -6 8 -12 -1 -36 4 -59 12 -54 5 3 9 0 8 -7 -1 -34 4 -48 15 -41 7 4 8 3 4 -4 -7 -11 39 -112 56 -123 5 -3 9 -10 9 -15 -2 -21 11 -44 21 -38 7 4 8 2 4 -4 -4 -7 -12 -12 -18 -12 -6 0 -17 -8 -25 -17 -8 -10 -12 -12 -8 -6 4 9 1 11 -9 7 -9 -3 -14 -10 -11 -14 3 -4 -2 -11 -11 -14 -9 -4 -14 -9 -11 -12 3 -4 0 -13 -8 -21 -8 -8 -18 -32 -21 -53 -5 -27 -10 -37 -20 -33 -8 3 -22 -3 -32 -14 -9 -10 -12 -12 -7 -3 9 13 8 13 -8 1 -10 -8 -15 -21 -12 -32 4 -12 -1 -22 -15 -29 -20 -11 -28 -40 -10 -40 6 0 10 -5 10 -11 0 -5 -4 -8 -9 -4 -16 9 -23 -33 -9 -57 7 -13 12 -25 11 -28 -1 -3 16 -4 37 -2 35 4 38 2 33 -17 -3 -13 2 -27 14 -38 10 -10 12 -13 3 -8 -13 8 -13 8 -3 -6 7 -9 10 -19 6 -23 -4 -4 4 -3 19 3 14 5 29 7 33 3 4 -4 6 -2 4 3 -1 6 1 18 6 28 4 9 5 30 3 47 -3 17 0 27 6 23 5 -4 7 1 3 10 -3 10 -2 17 3 17 6 0 10 23 10 50 0 31 -4 50 -12 50 -6 0 -8 3 -5 7 4 3 -1 12 -10 18 -15 11 -15 15 -4 29 7 9 11 25 8 36 -3 11 -1 20 5 20 5 0 7 4 4 8 -7 12 24 53 35 46 5 -3 22 1 38 9 26 13 29 12 40 -6 10 -15 10 -18 0 -11 -7 4 7 -20 31 -54 23 -34 45 -62 47 -62 2 0 1 6 -3 12 -13 22 61 -56 84 -89 13 -18 34 -36 47 -39 14 -3 23 -9 22 -13 -1 -3 11 -18 26 -34 16 -15 26 -31 23 -35 -3 -5 1 -9 9 -9 8 0 12 5 9 11 -3 6 4 0 16 -14 12 -14 19 -18 15 -10 -4 10 -1 9 8 -2 20 -25 41 -23 34 2 -3 12 1 23 10 28 8 5 18 24 23 43 l7 34 12 -28 11 -28 35 27 c32 24 40 36 33 49 -2 2 6 10 16 18 12 9 16 19 11 27 -5 8 -4 11 2 7 6 -4 16 6 22 23 9 26 7 34 -9 50 -11 11 -25 20 -31 20 -5 0 -7 5 -4 10 4 6 -7 13 -24 16 -17 4 -28 10 -25 15 3 5 0 10 -5 10 -6 1 -15 2 -21 3 -5 0 -16 10 -25 21 -9 11 -14 15 -11 8 4 -6 -33 27 -82 75 -48 48 -87 92 -87 97 0 6 -6 9 -12 7 -18 -3 -16 3 4 19 11 10 14 10 9 2 -4 -7 -5 -13 -2 -13 12 0 47 84 43 101 -3 11 -1 19 4 19 13 0 11 48 -3 56 -7 5 -8 3 -3 -7 8 -12 6 -12 -8 0 -9 7 -15 17 -12 21 7 11 -52 33 -66 24 -7 -4 -10 -3 -5 4 4 7 -14 15 -50 23 -55 12 -56 13 -52 45 3 24 -1 35 -12 38 -12 3 -11 4 3 5 10 0 20 -6 23 -14 11 -27 48 -18 63 16 7 16 10 33 7 36 -3 4 -6 -1 -6 -10 0 -9 -5 -19 -11 -23 -7 -4 -9 0 -5 14 4 12 2 32 -4 44 -10 21 -10 21 3 5 14 -16 15 -16 15 5 0 21 -4 23 -47 19 -37 -3 -42 -5 -26 -12 17 -8 16 -9 -7 -6 -15 2 -26 -1 -25 -7 1 -5 -2 -11 -8 -11 -25 -4 -46 -19 -41 -31 3 -8 0 -11 -9 -8 -7 3 -26 34 -41 69 -15 35 -32 61 -38 58 -5 -3 -6 -2 -3 3 6 10 -24 109 -37 121 -4 4 -4 -1 0 -12z m222 -389 c17 0 27 -5 24 -10 -3 -5 2 -7 11 -3 10 4 17 2 17 -4 0 -6 7 -8 16 -5 8 3 12 2 9 -4 -6 -9 8 -14 29 -11 7 2 4 -49 -8 -104 -2 -11 -5 -22 -5 -24 -1 -2 -10 4 -21 14 -10 9 -18 21 -17 25 1 5 -7 16 -18 25 -11 9 -14 13 -6 10 9 -5 8 1 -4 19 -17 25 -34 38 -19 14 4 -7 3 -8 -4 -4 -6 4 -8 14 -5 23 5 12 3 14 -7 8 -8 -5 -11 -4 -6 3 3 6 -3 16 -14 22 -11 6 -20 16 -20 23 0 8 3 8 9 -2 5 -8 22 -14 39 -15z m-26 -183 c-26 -5 -24 -19 10 -87 14 -28 23 -35 31 -27 8 8 8 14 -1 23 -19 19 -14 29 13 22 17 -4 25 -2 25 6 0 18 21 -1 43 -39 l18 -31 -28 11 c-29 11 -73 5 -73 -11 0 -5 5 -21 10 -36 7 -17 7 -31 1 -37 -6 -6 -14 6 -21 33 -6 23 -22 67 -36 96 -32 70 -31 84 4 83 24 -2 24 -2 4 -6z m253 -133 c33 -33 57 -60 54 -60 -2 0 -31 27 -64 60 -33 33 -57 60 -54 60 2 0 31 -27 64 -60z m-83 -152 c-15 -15 -16 -53 -2 -78 9 -18 8 -18 -20 -9 -33 12 -39 26 -15 35 8 4 15 14 15 23 0 16 18 41 29 41 3 0 0 -5 -7 -12z m96 -15 c15 -16 19 -21 7 -12 -11 9 -29 21 -40 27 -11 6 -14 12 -8 12 7 0 25 -12 41 -27z m-18 -39 c0 -16 -18 -18 -39 -5 -12 8 -13 12 -2 25 11 12 17 14 27 5 8 -6 14 -18 14 -25z m70 -91 c-11 -17 -11 -17 -6 0 3 10 7 26 7 35 1 15 2 15 6 0 2 -10 -1 -25 -7 -35z m-117 19 c14 -15 14 -19 3 -19 -8 0 -17 9 -19 19 -6 23 -4 23 16 0z"/>
</g>
<g id="layer104" fill="#61a20a" stroke="none">
<path d="M450 1159 c-72 -66 -231 -171 -248 -164 -7 2 -11 1 -8 -4 3 -4 -28 -23 -69 -42 -41 -19 -74 -39 -75 -46 0 -27 43 -124 80 -179 60 -91 66 -97 85 -86 32 17 137 127 187 195 42 56 53 66 60 53 5 -9 6 -26 3 -37 -4 -12 -3 -19 2 -16 5 3 15 -14 22 -38 7 -23 39 -97 71 -163 l58 -120 -27 -5 c-45 -9 -79 -53 -93 -117 -10 -52 -13 -56 -35 -52 -27 5 -56 -15 -49 -34 3 -7 -2 -15 -10 -18 -8 -3 -14 -15 -14 -26 0 -14 4 -19 13 -14 6 4 4 -2 -5 -13 -10 -11 -18 -29 -18 -40 0 -23 45 -59 55 -43 3 6 14 10 23 10 14 0 17 -7 14 -39 -3 -31 0 -41 16 -50 24 -13 46 7 36 32 -3 9 2 36 11 61 13 33 14 49 6 64 -6 10 -7 22 -4 26 3 3 0 23 -7 45 -24 73 18 149 91 165 23 5 30 0 54 -37 15 -23 44 -62 63 -86 l35 -43 11 33 c10 31 15 34 52 34 22 0 48 6 57 13 38 32 136 -36 154 -106 15 -60 -34 -90 -97 -57 -26 14 -29 13 -44 -10 -16 -24 -15 -25 43 -69 60 -46 88 -58 78 -32 -3 8 3 22 13 31 10 9 21 29 23 44 l3 26 13 -30 12 -30 30 35 c41 50 97 162 82 167 -6 2 -51 30 -100 62 -87 58 -229 193 -219 209 2 4 -5 9 -16 9 -29 3 -44 20 -16 19 29 -1 68 71 68 126 0 47 -17 59 -127 90 -76 21 -102 40 -70 51 10 4 10 7 0 18 -26 27 -15 40 29 33 39 -7 41 -6 35 14 -3 14 -1 20 6 15 7 -4 8 0 4 11 -4 10 -7 22 -7 27 0 5 -15 9 -34 9 -45 0 -105 -54 -107 -96 -1 -29 -1 -29 -8 -4 -4 14 -28 68 -54 121 -25 53 -49 108 -53 123 -3 14 -11 26 -18 26 -6 -1 -36 -23 -66 -51z m368 -339 c48 -22 62 -34 62 -50 0 -12 -4 -18 -10 -15 -5 3 -7 0 -4 -9 3 -8 -2 -31 -11 -51 l-17 -35 -49 62 c-27 35 -47 68 -44 75 2 7 -1 15 -7 19 -7 5 -8 2 -3 -7 8 -15 5 -12 -34 33 l-24 27 39 -11 c22 -5 67 -23 102 -38z m-96 -167 c-26 -5 -24 -19 10 -87 14 -28 23 -35 31 -27 8 8 8 14 -1 23 -19 19 -14 29 13 22 30 -7 33 10 8 40 -16 19 -16 19 -1 7 18 -14 84 -108 94 -135 4 -11 0 -16 -12 -16 -13 0 -15 3 -7 8 27 17 -35 57 -74 47 -21 -5 -24 -10 -18 -33 9 -35 12 -37 30 -22 27 22 22 6 -7 -21 l-27 -27 -7 32 c-3 17 -19 61 -35 98 -37 84 -37 98 -1 97 24 -2 24 -2 4 -6z m-238 -405 c-5 -7 -7 -20 -6 -29 2 -9 -5 -22 -14 -30 -16 -13 -16 -12 -4 8 12 18 12 24 -1 39 -9 11 -9 15 -1 10 7 -4 15 -1 18 9 4 9 9 14 11 11 3 -3 1 -11 -3 -18z"/>
</g>
<g id="layer105" fill="#ad325c" stroke="none">
<path d="M706 628 c3 -13 19 -48 35 -78 16 -30 29 -61 29 -67 0 -15 16 -17 25 -3 3 6 22 10 40 10 25 0 33 4 29 14 -8 20 -59 39 -83 31 -16 -5 -19 -3 -15 8 3 8 1 18 -5 22 -21 12 -11 25 14 19 19 -5 25 -2 25 9 0 22 -48 57 -77 57 -21 0 -23 -3 -17 -22z"/>
<path d="M795 340 c-10 -32 4 -77 35 -110 31 -33 51 -38 70 -15 18 21 -4 61 -36 69 -28 7 -31 21 -7 35 14 8 15 12 4 25 -19 23 -58 20 -66 -4z"/>
</g>
<g id="layer106" fill="#89e00b" stroke="none">
<path d="M450 1155 c-88 -77 -207 -155 -312 -205 -83 -40 -87 -44 -82 -69 11 -49 76 -171 114 -213 l37 -42 80 80 c44 43 99 107 122 142 24 35 44 62 46 60 2 -2 20 -53 40 -114 41 -126 135 -306 214 -413 54 -73 71 -85 71 -53 0 11 9 27 20 37 16 14 25 16 42 8 17 -8 29 -6 46 5 19 12 30 13 61 3 22 -6 47 -8 57 -4 16 6 17 4 6 -9 -10 -12 -8 -20 9 -41 11 -15 23 -42 26 -62 10 -60 -32 -86 -90 -56 -32 17 -34 16 -50 -6 -17 -22 -17 -23 44 -68 65 -48 85 -55 75 -29 -4 10 0 21 10 28 8 7 19 28 24 46 l7 35 13 -33 12 -32 33 42 c18 24 44 66 58 94 l26 52 -92 58 c-57 36 -124 91 -177 145 -47 47 -93 89 -103 92 -10 4 -17 13 -15 20 3 15 -99 161 -149 213 -18 18 -33 43 -33 54 0 11 -22 66 -48 123 -27 56 -55 117 -63 135 l-14 33 -65 -56z m299 -499 c35 -18 85 -74 110 -124 10 -20 33 -47 50 -60 17 -12 31 -31 31 -41 0 -11 6 -21 13 -24 6 -2 9 -7 5 -11 -3 -4 -16 -2 -28 4 -18 10 -20 14 -9 21 25 16 -35 59 -81 59 -47 0 -73 -31 -68 -81 2 -18 -2 -34 -8 -36 -6 -2 -11 17 -13 51 -2 63 -9 90 -45 170 -21 45 -24 61 -15 72 14 18 23 18 58 0z"/>
<path d="M783 533 c-7 -2 -13 -18 -13 -34 0 -29 13 -39 25 -19 3 6 22 10 40 10 40 0 39 20 -1 39 -27 12 -32 12 -51 4z"/>
<path d="M760 1012 c19 -10 37 -16 40 -14 9 7 -34 32 -54 32 -16 0 -12 -5 14 -18z"/>
<path d="M669 994 c-16 -20 -16 -88 0 -108 6 -7 42 -24 80 -36 135 -43 152 -67 109 -155 -26 -53 -16 -71 17 -32 25 28 45 84 45 124 0 30 -40 50 -167 83 -40 10 -41 12 -45 55 -3 48 12 66 38 44 8 -6 22 -8 31 -4 16 6 16 8 -6 26 -28 23 -84 25 -102 3z"/>
<path d="M570 493 c-43 -22 -70 -73 -70 -132 0 -24 -5 -73 -12 -108 -10 -54 -16 -66 -36 -74 -14 -5 -27 -7 -30 -5 -3 3 7 10 22 15 30 12 33 23 11 44 -20 20 -54 10 -67 -19 -16 -35 6 -57 54 -52 l37 3 -2 -45 c-2 -39 1 -45 19 -48 19 -3 23 3 27 40 4 24 9 59 12 79 4 23 3 39 -4 43 -6 4 -11 12 -11 17 0 6 5 7 10 4 16 -10 12 31 -5 45 -16 13 -11 55 13 109 10 22 28 39 54 50 34 14 37 18 26 34 -12 16 -15 16 -48 0z"/>
<path d="M433 333 c-19 -7 -16 -23 5 -23 10 0 23 -5 29 -11 16 -16 28 8 13 26 -13 15 -25 17 -47 8z"/>
<path d="M402 278 c-19 -19 -15 -23 33 -24 25 0 45 2 45 6 0 13 -25 30 -45 30 -12 0 -26 -5 -33 -12z"/>
</g>
<g id="layer107" fill="#a9b2ad" stroke="none">
<path d="M742 629 c9 -13 21 -23 27 -21 6 1 11 -2 11 -8 0 -5 5 -10 12 -10 14 0 -20 38 -47 52 -19 11 -19 10 -3 -13z"/>
<path d="M783 533 c-14 -5 -18 -63 -5 -63 4 0 16 7 26 15 11 8 28 13 38 9 28 -9 22 21 -7 34 -28 13 -33 13 -52 5z"/>
<path d="M898 369 c-55 -32 24 -159 98 -159 72 0 39 122 -42 156 -39 16 -34 16 -56 3z m72 -50 c0 -20 -16 -24 -39 -10 -12 8 -12 12 -2 25 16 19 41 10 41 -15z"/>
<path d="M794 334 c-9 -35 28 -111 61 -126 21 -9 29 -9 42 5 14 14 15 20 4 41 -8 13 -24 27 -37 30 -28 7 -31 21 -7 35 14 8 15 12 4 25 -22 26 -60 20 -67 -10z"/>
</g>
<g id="layer108" fill="#e4f2fa" stroke="none">
<path d="M786 514 c-11 -28 -7 -35 13 -24 11 5 30 10 43 10 22 1 22 1 4 15 -26 20 -52 19 -60 -1z"/>
<path d="M884 346 c-16 -66 106 -171 142 -122 30 42 -44 146 -106 146 -23 0 -31 -5 -36 -24z m85 -15 c8 -14 7 -22 -3 -30 -18 -15 -46 -3 -46 18 0 35 33 43 49 12z"/>
<path d="M804 349 c-13 -22 -5 -69 16 -99 30 -43 55 -54 74 -34 21 20 6 49 -29 58 -28 7 -33 27 -9 47 14 12 14 14 -2 26 -22 16 -41 17 -50 2z"/>
</g>


</svg>